<?xml version="1.0" standalone="no"?>
<!DOCTYPE svg PUBLIC "-//W3C//DTD SVG 20010904//EN"
 "http://www.w3.org/TR/2001/REC-SVG-20010904/DTD/svg10.dtd">
<svg version="1.0" xmlns="http://www.w3.org/2000/svg"
 width="435.000000pt" height="435.000000pt" viewBox="0 0 435.000000 435.000000"
 preserveAspectRatio="xMidYMid meet">
<metadata>
Created by potrace 1.11, written by Peter Selinger 2001-2013
</metadata>
<g transform="translate(0.000000,435.000000) scale(0.100000,-0.100000)"
fill="#000000" stroke="none">
<path d="M1776 3790 c-15 -5 -60 -12 -99 -15 -39 -4 -79 -8 -90 -10 -10 -2
-48 -7 -85 -11 -37 -3 -70 -8 -73 -10 -3 -2 -25 -6 -47 -9 -23 -2 -60 -9 -84
-14 -24 -6 -57 -12 -75 -15 -64 -12 -205 -47 -295 -75 -598 -184 -908 -484
-808 -781 87 -257 438 -473 990 -610 63 -16 131 -31 150 -34 19 -3 46 -8 60
-11 14 -2 36 -7 50 -10 14 -2 39 -7 55 -9 17 -2 50 -8 74 -11 24 -4 60 -9 80
-10 95 -8 189 -17 216 -20 17 -2 42 -4 57 -4 l27 -1 -35 -72 c-24 -51 -40 -73
-52 -72 -143 10 -306 30 -402 48 -14 3 -43 8 -65 11 -159 23 -452 105 -627
177 -318 129 -533 310 -583 490 -13 47 -14 -20 -12 -642 3 -754 0 -708 58
-823 99 -196 394 -394 769 -515 192 -62 477 -124 680 -147 30 -3 69 -8 85 -10
195 -26 782 -26 925 -1 14 3 54 7 89 10 35 4 73 8 85 11 11 2 41 7 66 10 56 6
123 19 265 52 525 118 916 341 1043 594 24 46 47 109 52 139 12 75 11 1388 -1
1336 -28 -119 -153 -265 -314 -367 -84 -53 -245 -129 -367 -173 -114 -41 -344
-107 -423 -121 -28 -4 -42 -7 -105 -20 -95 -18 -237 -38 -375 -50 -44 -4 -83
-9 -87 -12 -5 -2 -8 0 -8 5 0 6 30 32 68 59 140 103 151 109 247 123 50 7 99
14 110 16 11 2 45 8 75 14 84 15 94 17 136 29 21 5 68 17 104 26 36 9 108 30
160 48 52 17 97 32 100 32 27 7 208 85 250 108 192 105 292 186 365 297 39 59
51 85 63 130 56 221 -108 446 -445 614 -298 148 -652 240 -1123 292 -30 3 -71
10 -90 15 -44 11 -745 10 -784 -1z"/>
</g>
</svg>
